<svg xmlns="http://www.w3.org/2000/svg" width="133.094" height="133.094" viewBox="0 0 133.094 133.094"><defs><style>.a{opacity:0.11;}.b{mix-blend-mode:color-burn;isolation:isolate;}.c{fill:#dfe8f4;}.d{fill:#ccd8e5;}.e{fill:#0795ff;}.f{fill:#156cdd;}</style></defs><g class="a" transform="translate(133.094 133.094) rotate(180)"><g class="b" transform="translate(-8 -8)"><g transform="translate(8 8)"><path class="c" d="M21.65,14.827A6.825,6.825,0,1,1,14.824,8,6.825,6.825,0,0,1,21.65,14.827Z" transform="translate(-8 -8)"/><g transform="translate(0 17.064)"><path class="c" d="M21.65,20.978a6.825,6.825,0,1,1-6.827-6.824A6.826,6.826,0,0,1,21.65,20.978Z" transform="translate(-8 -14.154)"/></g><g transform="translate(0 34.128)"><path class="d" d="M21.65,27.132a6.825,6.825,0,1,1-6.827-6.824A6.826,6.826,0,0,1,21.65,27.132Z" transform="translate(-8 -20.308)"/></g><g transform="translate(0 51.191)"><path class="d" d="M21.65,33.286a6.825,6.825,0,1,1-6.827-6.824A6.826,6.826,0,0,1,21.65,33.286Z" transform="translate(-8 -26.462)"/></g><g transform="translate(0 68.252)"><path class="d" d="M21.65,39.442a6.825,6.825,0,1,1-6.827-6.827A6.825,6.825,0,0,1,21.65,39.442Z" transform="translate(-8 -32.615)"/></g><g transform="translate(0 85.316)"><path class="e" d="M21.65,45.6a6.825,6.825,0,1,1-6.827-6.827A6.825,6.825,0,0,1,21.65,45.6Z" transform="translate(-8 -38.769)"/></g><g transform="translate(0 102.38)"><path class="e" d="M21.65,51.75a6.825,6.825,0,1,1-6.827-6.827A6.825,6.825,0,0,1,21.65,51.75Z" transform="translate(-8 -44.923)"/></g><g transform="translate(0 119.444)"><path class="f" d="M21.65,57.9a6.825,6.825,0,1,1-6.827-6.824A6.826,6.826,0,0,1,21.65,57.9Z" transform="translate(-8 -51.077)"/></g></g><g transform="translate(25.064 8)"><path class="c" d="M27.8,14.827A6.825,6.825,0,1,1,20.978,8,6.825,6.825,0,0,1,27.8,14.827Z" transform="translate(-14.154 -8)"/><g transform="translate(0 17.064)"><path class="c" d="M27.8,20.978a6.825,6.825,0,1,1-6.827-6.824A6.826,6.826,0,0,1,27.8,20.978Z" transform="translate(-14.154 -14.154)"/></g><g transform="translate(0 34.128)"><path class="c" d="M27.8,27.132a6.825,6.825,0,1,1-6.827-6.824A6.826,6.826,0,0,1,27.8,27.132Z" transform="translate(-14.154 -20.308)"/></g><g transform="translate(0 51.191)"><path class="d" d="M27.8,33.286a6.825,6.825,0,1,1-6.827-6.824A6.826,6.826,0,0,1,27.8,33.286Z" transform="translate(-14.154 -26.462)"/></g><g transform="translate(0 68.252)"><path class="d" d="M27.8,39.442a6.825,6.825,0,1,1-6.827-6.827A6.825,6.825,0,0,1,27.8,39.442Z" transform="translate(-14.154 -32.615)"/></g><g transform="translate(0 85.316)"><path class="d" d="M27.8,45.6a6.825,6.825,0,1,1-6.827-6.827A6.825,6.825,0,0,1,27.8,45.6Z" transform="translate(-14.154 -38.769)"/></g><g transform="translate(0 102.38)"><path class="f" d="M27.8,51.75a6.825,6.825,0,1,1-6.827-6.827A6.825,6.825,0,0,1,27.8,51.75Z" transform="translate(-14.154 -44.923)"/></g><g transform="translate(0 119.444)"><path class="f" d="M27.8,57.9a6.825,6.825,0,1,1-6.827-6.824A6.826,6.826,0,0,1,27.8,57.9Z" transform="translate(-14.154 -51.077)"/></g></g><g transform="translate(42.128 8)"><path class="c" d="M33.958,14.827A6.825,6.825,0,1,1,27.132,8,6.825,6.825,0,0,1,33.958,14.827Z" transform="translate(-20.308 -8)"/><g transform="translate(0 17.064)"><path class="c" d="M33.958,20.978a6.825,6.825,0,1,1-6.827-6.824A6.826,6.826,0,0,1,33.958,20.978Z" transform="translate(-20.308 -14.154)"/></g><g transform="translate(0 34.128)"><path class="c" d="M33.958,27.132a6.825,6.825,0,1,1-6.827-6.824A6.826,6.826,0,0,1,33.958,27.132Z" transform="translate(-20.308 -20.308)"/></g><g transform="translate(0 51.191)"><path class="c" d="M33.958,33.286a6.825,6.825,0,1,1-6.827-6.824A6.826,6.826,0,0,1,33.958,33.286Z" transform="translate(-20.308 -26.462)"/></g><g transform="translate(0 68.252)"><path class="e" d="M33.958,39.442a6.825,6.825,0,1,1-6.827-6.827A6.825,6.825,0,0,1,33.958,39.442Z" transform="translate(-20.308 -32.615)"/></g><g transform="translate(0 85.316)"><path class="e" d="M33.958,45.6a6.825,6.825,0,1,1-6.827-6.827A6.825,6.825,0,0,1,33.958,45.6Z" transform="translate(-20.308 -38.769)"/></g><g transform="translate(0 102.38)"><path class="e" d="M33.958,51.75a6.825,6.825,0,1,1-6.827-6.827A6.825,6.825,0,0,1,33.958,51.75Z" transform="translate(-20.308 -44.923)"/></g><g transform="translate(0 119.444)"><path class="f" d="M33.958,57.9a6.825,6.825,0,1,1-6.827-6.824A6.826,6.826,0,0,1,33.958,57.9Z" transform="translate(-20.308 -51.077)"/></g></g><g transform="translate(59.189 8)"><path class="c" d="M40.114,14.827A6.827,6.827,0,1,1,33.288,8,6.827,6.827,0,0,1,40.114,14.827Z" transform="translate(-26.461 -8)"/><g transform="translate(0 17.064)"><path class="c" d="M40.114,20.978a6.827,6.827,0,1,1-6.827-6.824A6.827,6.827,0,0,1,40.114,20.978Z" transform="translate(-26.461 -14.154)"/></g><g transform="translate(0 34.128)"><path class="c" d="M40.114,27.132a6.827,6.827,0,1,1-6.827-6.824A6.827,6.827,0,0,1,40.114,27.132Z" transform="translate(-26.461 -20.308)"/></g><g transform="translate(0 51.191)"><path class="d" d="M40.114,33.286a6.827,6.827,0,1,1-6.827-6.824A6.827,6.827,0,0,1,40.114,33.286Z" transform="translate(-26.461 -26.462)"/></g><g transform="translate(0 68.252)"><path class="d" d="M40.114,39.442a6.827,6.827,0,1,1-6.827-6.827A6.827,6.827,0,0,1,40.114,39.442Z" transform="translate(-26.461 -32.615)"/></g><g transform="translate(0 85.316)"><path class="e" d="M40.114,45.6a6.827,6.827,0,1,1-6.827-6.827A6.827,6.827,0,0,1,40.114,45.6Z" transform="translate(-26.461 -38.769)"/></g><g transform="translate(0 102.38)"><path class="f" d="M40.114,51.75a6.827,6.827,0,1,1-6.827-6.827A6.827,6.827,0,0,1,40.114,51.75Z" transform="translate(-26.461 -44.923)"/></g><g transform="translate(0 119.444)"><path class="f" d="M40.114,57.9a6.827,6.827,0,1,1-6.827-6.824A6.827,6.827,0,0,1,40.114,57.9Z" transform="translate(-26.461 -51.077)"/></g></g><g transform="translate(76.252 8)"><path class="c" d="M46.265,14.827A6.825,6.825,0,1,1,39.442,8,6.824,6.824,0,0,1,46.265,14.827Z" transform="translate(-32.615 -8)"/><g transform="translate(0 17.064)"><path class="c" d="M46.265,20.978a6.825,6.825,0,1,1-6.824-6.824A6.825,6.825,0,0,1,46.265,20.978Z" transform="translate(-32.615 -14.154)"/></g><g transform="translate(0 34.128)"><path class="d" d="M46.265,27.132a6.825,6.825,0,1,1-6.824-6.824A6.825,6.825,0,0,1,46.265,27.132Z" transform="translate(-32.615 -20.308)"/></g><g transform="translate(0 51.191)"><path class="e" d="M46.265,33.286a6.825,6.825,0,1,1-6.824-6.824A6.825,6.825,0,0,1,46.265,33.286Z" transform="translate(-32.615 -26.462)"/></g><g transform="translate(0 68.252)"><path class="e" d="M46.265,39.442a6.825,6.825,0,1,1-6.824-6.827A6.824,6.824,0,0,1,46.265,39.442Z" transform="translate(-32.615 -32.615)"/></g><g transform="translate(0 85.316)"><path class="e" d="M46.265,45.6a6.825,6.825,0,1,1-6.824-6.827A6.824,6.824,0,0,1,46.265,45.6Z" transform="translate(-32.615 -38.769)"/></g><g transform="translate(0 102.38)"><path class="e" d="M46.265,51.75a6.825,6.825,0,1,1-6.824-6.827A6.824,6.824,0,0,1,46.265,51.75Z" transform="translate(-32.615 -44.923)"/></g><g transform="translate(0 119.444)"><path class="f" d="M46.265,57.9a6.825,6.825,0,1,1-6.824-6.824A6.825,6.825,0,0,1,46.265,57.9Z" transform="translate(-32.615 -51.077)"/></g></g><g transform="translate(93.316 8)"><path class="c" d="M52.419,14.827A6.825,6.825,0,1,1,45.6,8,6.824,6.824,0,0,1,52.419,14.827Z" transform="translate(-38.769 -8)"/><g transform="translate(0 17.064)"><path class="c" d="M52.419,20.978A6.825,6.825,0,1,1,45.6,14.154,6.825,6.825,0,0,1,52.419,20.978Z" transform="translate(-38.769 -14.154)"/></g><g transform="translate(0 34.128)"><path class="c" d="M52.419,27.132A6.825,6.825,0,1,1,45.6,20.308,6.825,6.825,0,0,1,52.419,27.132Z" transform="translate(-38.769 -20.308)"/></g><g transform="translate(0 51.191)"><path class="d" d="M52.419,33.286A6.825,6.825,0,1,1,45.6,26.462,6.825,6.825,0,0,1,52.419,33.286Z" transform="translate(-38.769 -26.462)"/></g><g transform="translate(0 68.252)"><path class="e" d="M52.419,39.442A6.825,6.825,0,1,1,45.6,32.615,6.824,6.824,0,0,1,52.419,39.442Z" transform="translate(-38.769 -32.615)"/></g><g transform="translate(0 85.316)"><path class="e" d="M52.419,45.6A6.825,6.825,0,1,1,45.6,38.769,6.824,6.824,0,0,1,52.419,45.6Z" transform="translate(-38.769 -38.769)"/></g><g transform="translate(0 102.38)"><path class="e" d="M52.419,51.75A6.825,6.825,0,1,1,45.6,44.923,6.824,6.824,0,0,1,52.419,51.75Z" transform="translate(-38.769 -44.923)"/></g><g transform="translate(0 119.444)"><path class="f" d="M52.419,57.9A6.825,6.825,0,1,1,45.6,51.077,6.825,6.825,0,0,1,52.419,57.9Z" transform="translate(-38.769 -51.077)"/></g></g><g transform="translate(110.38 8)"><path class="c" d="M58.573,14.827A6.825,6.825,0,1,1,51.75,8,6.824,6.824,0,0,1,58.573,14.827Z" transform="translate(-44.923 -8)"/><g transform="translate(0 17.064)"><path class="e" d="M58.573,20.978a6.825,6.825,0,1,1-6.824-6.824A6.825,6.825,0,0,1,58.573,20.978Z" transform="translate(-44.923 -14.154)"/></g><g transform="translate(0 34.128)"><path class="e" d="M58.573,27.132a6.825,6.825,0,1,1-6.824-6.824A6.825,6.825,0,0,1,58.573,27.132Z" transform="translate(-44.923 -20.308)"/></g><g transform="translate(0 51.191)"><path class="e" d="M58.573,33.286a6.825,6.825,0,1,1-6.824-6.824A6.825,6.825,0,0,1,58.573,33.286Z" transform="translate(-44.923 -26.462)"/></g><g transform="translate(0 68.252)"><path class="e" d="M58.573,39.442a6.825,6.825,0,1,1-6.824-6.827A6.824,6.824,0,0,1,58.573,39.442Z" transform="translate(-44.923 -32.615)"/></g><g transform="translate(0 85.316)"><path class="f" d="M58.573,45.6a6.825,6.825,0,1,1-6.824-6.827A6.824,6.824,0,0,1,58.573,45.6Z" transform="translate(-44.923 -38.769)"/></g><g transform="translate(0 102.38)"><path class="f" d="M58.573,51.75a6.825,6.825,0,1,1-6.824-6.827A6.824,6.824,0,0,1,58.573,51.75Z" transform="translate(-44.923 -44.923)"/></g><g transform="translate(0 119.444)"><path class="f" d="M58.573,57.9a6.825,6.825,0,1,1-6.824-6.824A6.825,6.825,0,0,1,58.573,57.9Z" transform="translate(-44.923 -51.077)"/></g></g><g transform="translate(127.444 8)"><path class="e" d="M64.727,14.827A6.825,6.825,0,1,1,57.9,8,6.825,6.825,0,0,1,64.727,14.827Z" transform="translate(-51.077 -8)"/><g transform="translate(0 17.064)"><path class="e" d="M64.727,20.978A6.825,6.825,0,1,1,57.9,14.154,6.826,6.826,0,0,1,64.727,20.978Z" transform="translate(-51.077 -14.154)"/></g><g transform="translate(0 34.128)"><path class="e" d="M64.727,27.132A6.825,6.825,0,1,1,57.9,20.308,6.826,6.826,0,0,1,64.727,27.132Z" transform="translate(-51.077 -20.308)"/></g><g transform="translate(0 51.191)"><path class="e" d="M64.727,33.286A6.825,6.825,0,1,1,57.9,26.462,6.826,6.826,0,0,1,64.727,33.286Z" transform="translate(-51.077 -26.462)"/></g><g transform="translate(0 68.252)"><path class="f" d="M64.727,39.442A6.825,6.825,0,1,1,57.9,32.615,6.825,6.825,0,0,1,64.727,39.442Z" transform="translate(-51.077 -32.615)"/></g><g transform="translate(0 85.316)"><path class="f" d="M64.727,45.6A6.825,6.825,0,1,1,57.9,38.769,6.825,6.825,0,0,1,64.727,45.6Z" transform="translate(-51.077 -38.769)"/></g><g transform="translate(0 102.38)"><path class="f" d="M64.727,51.75A6.825,6.825,0,1,1,57.9,44.923,6.825,6.825,0,0,1,64.727,51.75Z" transform="translate(-51.077 -44.923)"/></g><g transform="translate(0 119.444)"><path class="f" d="M64.727,57.9A6.825,6.825,0,1,1,57.9,51.077,6.826,6.826,0,0,1,64.727,57.9Z" transform="translate(-51.077 -51.077)"/></g></g></g></g></svg>