<svg xmlns="http://www.w3.org/2000/svg" xmlns:xlink="http://www.w3.org/1999/xlink" width="368" height="82" viewBox="0 0 368 82"><defs><style>.a{fill:#fff;}.b{fill:#1e81ce;}.c{fill:#999;font-size:8px;font-family:Montserrat-SemiBold, Montserrat;}.c,.d{font-weight:600;}.d{fill:#1b1b1b;font-size:17px;font-family:NunitoSans-SemiBold, Nunito Sans;}.e{filter:url(#a);}</style><filter id="a" x="0" y="0" width="368" height="82" filterUnits="userSpaceOnUse"><feOffset dy="3" input="SourceAlpha"/><feGaussianBlur stdDeviation="3" result="b"/><feFlood flood-opacity="0.161"/><feComposite operator="in" in2="b"/><feComposite in="SourceGraphic"/></filter></defs><g transform="translate(9 6)"><g class="e" transform="matrix(1, 0, 0, 1, -9, -6)"><rect class="a" width="350" height="64" rx="6" transform="translate(9 6)"/></g><g transform="translate(304 0)"><path class="b" d="M0,0H40a6,6,0,0,1,6,6V58a6,6,0,0,1-6,6H0a0,0,0,0,1,0,0V0A0,0,0,0,1,0,0Z" transform="translate(0 0)"/></g><g transform="translate(53.856 16)"><text class="c" transform="translate(0 26.959)"><tspan x="0" y="0">Read About the rules and regulation act</tspan></text><text class="d" transform="translate(2.144 14)"><tspan x="0" y="0">Karnataka Excise Act</tspan></text></g></g></svg>