<svg xmlns="http://www.w3.org/2000/svg" width="40.055" height="40.055" viewBox="0 0 40.055 40.055"><defs><style>.a{fill:#fff;}</style></defs><path class="a" d="M6.006,10.011H2V38.05a4.017,4.017,0,0,0,4.006,4.006H34.044V38.05H6.006ZM38.05,2H14.017a4.017,4.017,0,0,0-4.006,4.006V30.039a4.017,4.017,0,0,0,4.006,4.006H38.05a4.017,4.017,0,0,0,4.006-4.006V6.006A4.017,4.017,0,0,0,38.05,2Zm-2,18.025H16.019V16.019H36.047Zm-8.011,8.011H16.019V24.03H28.036Zm8.011-16.022H16.019V8.008H36.047Z" transform="translate(-2 -2)"/></svg>