<svg xmlns="http://www.w3.org/2000/svg" width="48" height="48" viewBox="0 0 48 48"><defs><style>.a{fill:none;}.b{fill:#fff;}</style></defs><g transform="translate(-0.413 -0.076)"><g transform="translate(0.413 0.413)"><rect class="a" width="48" height="48" transform="translate(0 -0.337)"/></g><g transform="translate(1.917 5.976)"><path class="b" d="M41.6,8a4.066,4.066,0,0,0-3.917,5.095l-7.206,7.226a4.134,4.134,0,0,0-2.111,0l-5.176-5.176a4.058,4.058,0,1,0-7.835,0L6.095,24.38a4.056,4.056,0,1,0,2.882,2.882l9.236-9.256a4.134,4.134,0,0,0,2.111,0L25.5,23.183a4.058,4.058,0,1,0,7.835,0l7.226-7.206A4.056,4.056,0,1,0,41.6,8Z" transform="translate(-1 2.149)"/><path class="b" d="M18.089,15.179,20,10.977l4.181-1.888L20,7.2,18.089,3,16.222,7.2,12,9.089l4.222,1.888Z" transform="translate(10.328 -3)"/><path class="b" d="M6.074,16.149l1.015-4.06,4.06-1.015L7.089,10.06,6.074,6,5.06,10.06,1,11.074l4.06,1.015Z" transform="translate(-1 0.089)"/></g></g></svg>