<svg xmlns="http://www.w3.org/2000/svg" xmlns:xlink="http://www.w3.org/1999/xlink" width="141.769" height="51.323" viewBox="0 0 141.769 51.323"><defs><style>.a{fill:#0c204a;}.b{clip-path:url(#a);}</style><clipPath id="a"><rect class="a" width="141.769" height="51.323"/></clipPath></defs><g class="b"><path class="a" d="M6.547,51.323A1.748,1.748,0,0,1,4.8,49.575V44.321H1.748A1.748,1.748,0,0,1,0,42.573V8.1A8.111,8.111,0,0,1,8.1,0H21.119a4.925,4.925,0,1,1,0,9.851H8.892a1.748,1.748,0,0,1,0-3.5H21.119a1.429,1.429,0,0,0,0-2.858H8.1a4.606,4.606,0,0,0,0,9.212H19.143A6.3,6.3,0,0,1,25.437,19V42.573a1.748,1.748,0,0,1-1.748,1.748H14.273l-6.49,6.49a1.748,1.748,0,0,1-1.236.512M3.5,40.825H6.547A1.748,1.748,0,0,1,8.3,42.573v2.781l4.017-4.017a1.748,1.748,0,0,1,1.236-.512H21.94V19a2.8,2.8,0,0,0-2.8-2.8H8.1A8.057,8.057,0,0,1,3.5,14.765Z"/><path class="a" d="M69.072,169.777H60.811a1.748,1.748,0,0,1,0-3.5h8.261a1.748,1.748,0,1,1,0,3.5" transform="translate(-51.92 -146.17)"/><path class="a" d="M69.072,224.807H60.811a1.748,1.748,0,0,1,0-3.5h8.261a1.748,1.748,0,1,1,0,3.5" transform="translate(-51.92 -194.545)"/><path class="a" d="M69.072,279.837H60.811a1.748,1.748,0,0,1,0-3.5h8.261a1.748,1.748,0,1,1,0,3.5" transform="translate(-51.92 -242.918)"/><path class="a" d="M319.382,98.1h7.67c6.181,0,10.452,4.243,10.452,9.777v.056c0,5.535-4.271,9.833-10.452,9.833h-7.67Zm7.67,15.762a5.6,5.6,0,0,0,5.928-5.872v-.056A5.648,5.648,0,0,0,327.052,102h-3.343v11.856Z" transform="translate(-280.754 -86.233)"/><path class="a" d="M501.04,98.1h14.834v3.849H505.338v3.99h9.272v3.849h-9.272v4.13h10.676v3.849H501.04Z" transform="translate(-440.441 -86.232)"/><path class="a" d="M650.012,146.561l-3.034,4.692H642.51l5.282-7.642-5.085-7.417h4.58L650.1,140.6l2.838-4.411H657.4l-5.085,7.361,5.31,7.7h-4.58Z" transform="translate(-564.802 -119.722)"/><rect class="a" width="8.653" height="4.102" transform="translate(94.032 20.771)"/><path class="a" d="M880.149,98.1h8.035c4.692,0,7.53,2.782,7.53,6.8v.056c0,4.552-3.54,6.911-7.951,6.911h-3.287v5.9h-4.327Zm7.755,9.918c2.163,0,3.428-1.292,3.428-2.978v-.056c0-1.939-1.349-2.978-3.512-2.978h-3.343v6.012Z" transform="translate(-773.699 -86.232)"/><path class="a" d="M324.368,316.382l-.5.522v1.388h-.542v-4.108h.542v2.031l1.825-2.031h.655L324.729,316l1.744,2.294h-.649Z" transform="translate(-284.219 -276.185)"/><path class="a" d="M353.848,325.551a1.1,1.1,0,0,1-.073-.322,1.165,1.165,0,0,1-.869.378,1.078,1.078,0,0,1-.741-.255.826.826,0,0,1-.289-.648.863.863,0,0,1,.363-.741,1.709,1.709,0,0,1,1.02-.264h.508v-.24a.586.586,0,0,0-.164-.436.658.658,0,0,0-.482-.162.761.761,0,0,0-.468.141.416.416,0,0,0-.189.341h-.525a.72.72,0,0,1,.162-.442,1.107,1.107,0,0,1,.44-.337,1.48,1.48,0,0,1,.611-.124,1.206,1.206,0,0,1,.827.264.952.952,0,0,1,.31.727v1.405a1.714,1.714,0,0,0,.107.669v.045Zm-.866-.4a.917.917,0,0,0,.466-.127.768.768,0,0,0,.319-.33v-.626h-.409q-.96,0-.959.562a.475.475,0,0,0,.164.384.629.629,0,0,0,.42.138" transform="translate(-309.318 -283.444)"/><path class="a" d="M380.064,322.967a1.576,1.576,0,0,0-.257-.02.688.688,0,0,0-.7.437v2.167h-.522V322.5h.508l.008.353a.813.813,0,0,1,.728-.409.535.535,0,0,1,.231.039Z" transform="translate(-332.8 -283.444)"/><path class="a" d="M395.248,322.5l.017.384a1.112,1.112,0,0,1,.914-.44q.968,0,.976,1.092v2.017h-.522v-2.02a.7.7,0,0,0-.151-.488.6.6,0,0,0-.461-.158.753.753,0,0,0-.446.135.919.919,0,0,0-.3.356v2.175h-.522V322.5Z" transform="translate(-347.01 -283.444)"/><path class="a" d="M422.362,325.551a1.1,1.1,0,0,1-.073-.322,1.165,1.165,0,0,1-.869.378,1.078,1.078,0,0,1-.741-.255.826.826,0,0,1-.289-.648.863.863,0,0,1,.363-.741,1.709,1.709,0,0,1,1.02-.264h.508v-.24a.586.586,0,0,0-.164-.436.658.658,0,0,0-.482-.162.761.761,0,0,0-.468.141.416.416,0,0,0-.189.341h-.525a.72.72,0,0,1,.162-.442,1.107,1.107,0,0,1,.44-.337,1.48,1.48,0,0,1,.611-.124,1.207,1.207,0,0,1,.827.264.952.952,0,0,1,.31.727v1.405a1.715,1.715,0,0,0,.107.669v.045Zm-.866-.4a.917.917,0,0,0,.466-.127.769.769,0,0,0,.319-.33v-.626h-.409q-.959,0-.959.562a.475.475,0,0,0,.164.384.629.629,0,0,0,.42.138" transform="translate(-369.546 -283.444)"/><path class="a" d="M445.123,316.8v.739h.57v.4h-.57v1.9a.423.423,0,0,0,.076.275.321.321,0,0,0,.26.092,1.269,1.269,0,0,0,.248-.034v.421a1.523,1.523,0,0,1-.4.056.65.65,0,0,1-.528-.212.909.909,0,0,1-.178-.6V317.94h-.556v-.4h.556V316.8Z" transform="translate(-390.34 -278.482)"/><path class="a" d="M463.956,325.551a1.093,1.093,0,0,1-.073-.322,1.165,1.165,0,0,1-.869.378,1.078,1.078,0,0,1-.741-.255.826.826,0,0,1-.289-.648.863.863,0,0,1,.363-.741,1.709,1.709,0,0,1,1.02-.264h.508v-.24a.587.587,0,0,0-.164-.436.658.658,0,0,0-.482-.162.761.761,0,0,0-.468.141.416.416,0,0,0-.189.341h-.525a.72.72,0,0,1,.162-.442,1.106,1.106,0,0,1,.44-.337,1.48,1.48,0,0,1,.611-.124,1.207,1.207,0,0,1,.827.264.952.952,0,0,1,.31.727v1.405a1.717,1.717,0,0,0,.107.669v.045Zm-.866-.4a.917.917,0,0,0,.466-.127.768.768,0,0,0,.319-.33v-.626h-.409q-.959,0-.959.562a.475.475,0,0,0,.164.384.629.629,0,0,0,.42.138" transform="translate(-406.109 -283.444)"/><path class="a" d="M489.567,315.238l-.327.341v1.072h-.522v-4.334h.522v2.621l.279-.336.951-1h.635l-1.188,1.275,1.326,1.778h-.612Z" transform="translate(-429.61 -274.544)"/><path class="a" d="M514.157,325.551a1.1,1.1,0,0,1-.073-.322,1.165,1.165,0,0,1-.869.378,1.079,1.079,0,0,1-.741-.255.826.826,0,0,1-.289-.648.863.863,0,0,1,.363-.741,1.709,1.709,0,0,1,1.02-.264h.508v-.24a.586.586,0,0,0-.164-.436.658.658,0,0,0-.482-.162.761.761,0,0,0-.468.141.416.416,0,0,0-.189.341h-.525a.72.72,0,0,1,.162-.442,1.107,1.107,0,0,1,.44-.337,1.48,1.48,0,0,1,.611-.124,1.206,1.206,0,0,1,.827.264.952.952,0,0,1,.311.727v1.405a1.715,1.715,0,0,0,.107.669v.045Zm-.866-.4a.917.917,0,0,0,.466-.127.769.769,0,0,0,.319-.33v-.626h-.409q-.96,0-.959.562a.475.475,0,0,0,.164.384.629.629,0,0,0,.42.138" transform="translate(-450.239 -283.444)"/><path class="a" d="M550.784,316.05a2.549,2.549,0,0,1-1.014-.492.941.941,0,0,1-.317-.721.994.994,0,0,1,.388-.8,1.542,1.542,0,0,1,1.009-.317,1.682,1.682,0,0,1,.755.164,1.239,1.239,0,0,1,.513.451,1.154,1.154,0,0,1,.182.629h-.544a.751.751,0,0,0-.237-.587.963.963,0,0,0-.669-.214.986.986,0,0,0-.625.177.589.589,0,0,0-.224.49.53.53,0,0,0,.213.425,2.091,2.091,0,0,0,.725.318,3.361,3.361,0,0,1,.8.318,1.215,1.215,0,0,1,.429.4,1.032,1.032,0,0,1,.14.545.96.96,0,0,1-.389.8,1.66,1.66,0,0,1-1.041.3,1.932,1.932,0,0,1-.79-.162,1.33,1.33,0,0,1-.566-.444,1.084,1.084,0,0,1-.2-.641h.544a.707.707,0,0,0,.275.588,1.158,1.158,0,0,0,.735.216,1.064,1.064,0,0,0,.657-.175.568.568,0,0,0,.229-.477.558.558,0,0,0-.212-.467,2.44,2.44,0,0,0-.767-.326" transform="translate(-482.885 -275.774)"/><path class="a" d="M577.088,316.8v.739h.57v.4h-.57v1.9a.423.423,0,0,0,.076.275.321.321,0,0,0,.26.092,1.268,1.268,0,0,0,.248-.034v.421a1.523,1.523,0,0,1-.4.056.65.65,0,0,1-.528-.212.909.909,0,0,1-.178-.6V317.94h-.556v-.4h.556V316.8Z" transform="translate(-506.344 -278.482)"/><path class="a" d="M595.921,325.551a1.1,1.1,0,0,1-.073-.322,1.165,1.165,0,0,1-.869.378,1.078,1.078,0,0,1-.741-.255.826.826,0,0,1-.289-.648.863.863,0,0,1,.363-.741,1.709,1.709,0,0,1,1.02-.264h.508v-.24a.586.586,0,0,0-.164-.436.658.658,0,0,0-.482-.162.761.761,0,0,0-.468.141.416.416,0,0,0-.189.341h-.525a.719.719,0,0,1,.162-.442,1.107,1.107,0,0,1,.44-.337,1.48,1.48,0,0,1,.611-.124,1.207,1.207,0,0,1,.827.264.952.952,0,0,1,.31.727v1.405a1.715,1.715,0,0,0,.107.669v.045Zm-.866-.4a.917.917,0,0,0,.465-.127.768.768,0,0,0,.319-.33v-.626h-.409q-.959,0-.959.562a.475.475,0,0,0,.164.384.629.629,0,0,0,.42.138" transform="translate(-522.114 -283.444)"/><path class="a" d="M618.682,316.8v.739h.57v.4h-.57v1.9a.423.423,0,0,0,.076.275.321.321,0,0,0,.259.092,1.272,1.272,0,0,0,.249-.034v.421a1.524,1.524,0,0,1-.4.056.65.65,0,0,1-.528-.212.908.908,0,0,1-.178-.6V317.94H617.6v-.4h.556V316.8Z" transform="translate(-542.908 -278.482)"/><path class="a" d="M636.568,325.608a1.333,1.333,0,0,1-1.01-.408,1.513,1.513,0,0,1-.389-1.091v-.1a1.831,1.831,0,0,1,.173-.811,1.353,1.353,0,0,1,.485-.559,1.22,1.22,0,0,1,.676-.2,1.143,1.143,0,0,1,.925.392,1.7,1.7,0,0,1,.33,1.123v.217h-2.068a1.085,1.085,0,0,0,.264.729.829.829,0,0,0,.642.278.909.909,0,0,0,.468-.113,1.176,1.176,0,0,0,.336-.3l.319.248a1.282,1.282,0,0,1-1.151.59m-.065-2.737a.7.7,0,0,0-.531.23,1.118,1.118,0,0,0-.265.645h1.529v-.04a.994.994,0,0,0-.214-.616.656.656,0,0,0-.519-.219" transform="translate(-558.348 -283.444)"/><rect class="a" width="1.377" height="0.426" transform="translate(81.154 40.149)"/><path class="a" d="M699.087,318.292v-4.108h1.159a1.866,1.866,0,0,1,.948.237,1.6,1.6,0,0,1,.636.674,2.2,2.2,0,0,1,.227,1v.262a2.2,2.2,0,0,1-.224,1.018,1.576,1.576,0,0,1-.64.672,1.987,1.987,0,0,1-.969.24Zm.542-3.665v3.222h.57a1.24,1.24,0,0,0,.975-.39,1.61,1.61,0,0,0,.348-1.11v-.24a1.636,1.636,0,0,0-.329-1.089,1.17,1.17,0,0,0-.932-.394Z" transform="translate(-614.536 -276.185)"/><path class="a" d="M729.763,314.019a.311.311,0,0,1,.078-.215.292.292,0,0,1,.23-.087.3.3,0,0,1,.231.087.309.309,0,0,1,.079.215.3.3,0,0,1-.079.212.3.3,0,0,1-.231.085.3.3,0,0,1-.23-.085.3.3,0,0,1-.078-.212m.564,3.862h-.522v-3.053h.522Z" transform="translate(-641.502 -275.774)"/><path class="a" d="M740.307,324a1.794,1.794,0,0,1,.33-1.136,1.138,1.138,0,0,1,1.746-.027l.025-.338h.477v2.979a1.242,1.242,0,0,1-.351.934,1.3,1.3,0,0,1-.944.341,1.568,1.568,0,0,1-.646-.141,1.111,1.111,0,0,1-.483-.387l.271-.313a1.02,1.02,0,0,0,.821.415.8.8,0,0,0,.594-.214.82.82,0,0,0,.213-.6v-.262a1.072,1.072,0,0,1-.855.361,1.043,1.043,0,0,1-.868-.432,1.886,1.886,0,0,1-.332-1.176m.525.059a1.368,1.368,0,0,0,.212.811.688.688,0,0,0,.592.295.765.765,0,0,0,.725-.449v-1.394a.774.774,0,0,0-.719-.437.694.694,0,0,0-.6.3,1.491,1.491,0,0,0-.214.877" transform="translate(-650.77 -283.444)"/><path class="a" d="M768.16,314.019a.312.312,0,0,1,.078-.215.292.292,0,0,1,.23-.087.3.3,0,0,1,.231.087.308.308,0,0,1,.079.215.3.3,0,0,1-.079.212.3.3,0,0,1-.231.085.3.3,0,0,1-.23-.085.3.3,0,0,1-.078-.212m.564,3.862H768.2v-3.053h.522Z" transform="translate(-675.255 -275.774)"/><path class="a" d="M777.754,316.8v.739h.57v.4h-.57v1.9a.423.423,0,0,0,.076.275.32.32,0,0,0,.259.092,1.27,1.27,0,0,0,.248-.034v.421a1.523,1.523,0,0,1-.4.056.65.65,0,0,1-.528-.212.909.909,0,0,1-.178-.6V317.94h-.556v-.4h.556V316.8Z" transform="translate(-682.741 -278.482)"/><path class="a" d="M796.586,325.551a1.1,1.1,0,0,1-.073-.322,1.165,1.165,0,0,1-.869.378,1.078,1.078,0,0,1-.741-.255.826.826,0,0,1-.289-.648.863.863,0,0,1,.363-.741A1.709,1.709,0,0,1,796,323.7h.508v-.24a.586.586,0,0,0-.164-.436.658.658,0,0,0-.482-.162.761.761,0,0,0-.468.141.416.416,0,0,0-.189.341h-.525a.72.72,0,0,1,.162-.442,1.107,1.107,0,0,1,.44-.337,1.48,1.48,0,0,1,.611-.124,1.207,1.207,0,0,1,.827.264.952.952,0,0,1,.31.727v1.405a1.715,1.715,0,0,0,.107.669v.045Zm-.866-.4a.917.917,0,0,0,.465-.127.768.768,0,0,0,.319-.33v-.626H796.1q-.959,0-.959.562a.475.475,0,0,0,.164.384.628.628,0,0,0,.42.138" transform="translate(-698.509 -283.444)"/><rect class="a" width="0.522" height="4.334" transform="translate(99.381 37.773)"/><path class="a" d="M847.744,316.393h-1.78v1.456h2.068v.443h-2.61v-4.108H848v.443h-2.04v1.323h1.78Z" transform="translate(-743.172 -276.185)"/><path class="a" d="M870.893,324.023l.677-1.114h.609l-1,1.509,1.03,1.543h-.6l-.705-1.143-.705,1.143h-.607l1.03-1.543-1-1.509h.6Z" transform="translate(-764.417 -283.854)"/><path class="a" d="M895.351,325.182a.752.752,0,0,0,.488-.169.6.6,0,0,0,.231-.423h.494a.945.945,0,0,1-.181.5,1.187,1.187,0,0,1-.444.378,1.28,1.28,0,0,1-.588.141,1.257,1.257,0,0,1-.992-.416,1.657,1.657,0,0,1-.368-1.138v-.088a1.837,1.837,0,0,1,.164-.793,1.248,1.248,0,0,1,.47-.539,1.335,1.335,0,0,1,.724-.192,1.224,1.224,0,0,1,.853.308,1.1,1.1,0,0,1,.362.8h-.494a.72.72,0,0,0-.224-.487.7.7,0,0,0-.5-.19.731.731,0,0,0-.617.286,1.345,1.345,0,0,0-.219.828v.1a1.319,1.319,0,0,0,.217.813.734.734,0,0,0,.621.285" transform="translate(-785.867 -283.444)"/><path class="a" d="M920.141,314.019a.311.311,0,0,1,.078-.215.292.292,0,0,1,.23-.087.3.3,0,0,1,.232.087.309.309,0,0,1,.079.215.3.3,0,0,1-.079.212.3.3,0,0,1-.232.085.3.3,0,0,1-.23-.085.3.3,0,0,1-.078-.212m.564,3.862h-.522v-3.053h.522Z" transform="translate(-808.854 -275.774)"/><path class="a" d="M932.566,324.741a.385.385,0,0,0-.159-.329,1.54,1.54,0,0,0-.556-.2,2.623,2.623,0,0,1-.629-.2.9.9,0,0,1-.344-.282.675.675,0,0,1-.111-.389.791.791,0,0,1,.317-.635,1.239,1.239,0,0,1,.811-.26,1.276,1.276,0,0,1,.842.268.852.852,0,0,1,.323.686h-.525a.471.471,0,0,0-.182-.37.682.682,0,0,0-.458-.155.713.713,0,0,0-.446.124.39.39,0,0,0-.161.324.317.317,0,0,0,.149.285,1.839,1.839,0,0,0,.54.183,2.82,2.82,0,0,1,.633.209.925.925,0,0,1,.36.292.718.718,0,0,1,.117.416.781.781,0,0,1-.327.656,1.373,1.373,0,0,1-.849.247,1.537,1.537,0,0,1-.649-.13,1.055,1.055,0,0,1-.442-.363.873.873,0,0,1-.159-.5h.522a.54.54,0,0,0,.21.416.815.815,0,0,0,.518.154.84.84,0,0,0,.475-.12.368.368,0,0,0,.179-.32" transform="translate(-818.103 -283.444)"/><path class="a" d="M956.649,325.608a1.334,1.334,0,0,1-1.01-.408,1.513,1.513,0,0,1-.389-1.091v-.1a1.831,1.831,0,0,1,.173-.811,1.352,1.352,0,0,1,.485-.559,1.22,1.22,0,0,1,.676-.2,1.144,1.144,0,0,1,.925.392,1.7,1.7,0,0,1,.33,1.123v.217h-2.068a1.085,1.085,0,0,0,.264.729.829.829,0,0,0,.642.278.909.909,0,0,0,.468-.113,1.177,1.177,0,0,0,.336-.3l.319.248a1.282,1.282,0,0,1-1.151.59m-.065-2.737a.7.7,0,0,0-.53.23,1.118,1.118,0,0,0-.265.645h1.529v-.04a.994.994,0,0,0-.214-.616.656.656,0,0,0-.519-.219" transform="translate(-839.717 -283.444)"/><path class="a" d="M994.7,316.684v1.608h-.542v-4.108h1.515a1.522,1.522,0,0,1,1.057.344,1.167,1.167,0,0,1,.382.911,1.151,1.151,0,0,1-.374.921,1.59,1.59,0,0,1-1.071.323Zm0-.443h.973a.973.973,0,0,0,.666-.2.75.75,0,0,0,.231-.592.775.775,0,0,0-.231-.588.913.913,0,0,0-.635-.229h-1Z" transform="translate(-873.92 -276.185)"/><rect class="a" width="0.522" height="4.334" transform="translate(123.847 37.773)"/><path class="a" d="M1036.466,325.551a1.107,1.107,0,0,1-.073-.322,1.164,1.164,0,0,1-.869.378,1.078,1.078,0,0,1-.741-.255.826.826,0,0,1-.289-.648.863.863,0,0,1,.362-.741,1.71,1.71,0,0,1,1.02-.264h.508v-.24a.587.587,0,0,0-.163-.436.658.658,0,0,0-.483-.162.76.76,0,0,0-.468.141.416.416,0,0,0-.189.341h-.525a.719.719,0,0,1,.162-.442,1.105,1.105,0,0,1,.44-.337,1.48,1.48,0,0,1,.611-.124,1.206,1.206,0,0,1,.827.264.952.952,0,0,1,.31.727v1.405a1.716,1.716,0,0,0,.107.669v.045Zm-.866-.4a.917.917,0,0,0,.465-.127.768.768,0,0,0,.319-.33v-.626h-.409q-.959,0-.959.562a.475.475,0,0,0,.164.384.629.629,0,0,0,.421.138" transform="translate(-909.377 -283.444)"/><path class="a" d="M1059.226,316.8v.739h.57v.4h-.57v1.9a.423.423,0,0,0,.076.275.32.32,0,0,0,.26.092,1.271,1.271,0,0,0,.248-.034v.421a1.524,1.524,0,0,1-.4.056.65.65,0,0,1-.528-.212.909.909,0,0,1-.178-.6V317.94h-.556v-.4h.556V316.8Z" transform="translate(-930.17 -278.482)"/><path class="a" d="M1075.426,316.221v-2.649h-.482v-.4h.482v-.313a1.04,1.04,0,0,1,.262-.759.991.991,0,0,1,.742-.268,1.388,1.388,0,0,1,.358.048l-.028.421a1.5,1.5,0,0,0-.282-.025.509.509,0,0,0-.392.149.6.6,0,0,0-.138.426v.323h.652v.4h-.652v2.649Z" transform="translate(-944.935 -274.114)"/><path class="a" d="M1092.254,324a1.8,1.8,0,0,1,.176-.807,1.315,1.315,0,0,1,.491-.553,1.337,1.337,0,0,1,.718-.195,1.287,1.287,0,0,1,1.009.432,1.661,1.661,0,0,1,.385,1.148v.037a1.819,1.819,0,0,1-.171.8,1.3,1.3,0,0,1-.488.552,1.351,1.351,0,0,1-.729.2,1.285,1.285,0,0,1-1.006-.432,1.653,1.653,0,0,1-.385-1.143Zm.525.062a1.306,1.306,0,0,0,.235.815.8.8,0,0,0,1.263,0,1.428,1.428,0,0,0,.234-.873,1.3,1.3,0,0,0-.238-.814.758.758,0,0,0-.633-.312.749.749,0,0,0-.624.308,1.417,1.417,0,0,0-.237.88" transform="translate(-960.151 -283.444)"/><path class="a" d="M1122.118,322.967a1.573,1.573,0,0,0-.257-.02.688.688,0,0,0-.7.437v2.167h-.522V322.5h.508l.008.353a.813.813,0,0,1,.728-.409.534.534,0,0,1,.231.039Z" transform="translate(-985.107 -283.444)"/><path class="a" d="M1137.279,322.5l.014.339a1.127,1.127,0,0,1,.906-.4.873.873,0,0,1,.872.491,1.155,1.155,0,0,1,.4-.356,1.171,1.171,0,0,1,.577-.135q1,0,1.021,1.064v2.046h-.522v-2.014a.7.7,0,0,0-.15-.49.659.659,0,0,0-.5-.162.692.692,0,0,0-.483.174.7.7,0,0,0-.223.467v2.026h-.525v-2a.582.582,0,0,0-.652-.666.7.7,0,0,0-.7.437v2.229h-.522V322.5Z" transform="translate(-999.296 -283.444)"/></g></svg>