<svg id="Group_8553" data-name="Group 8553" xmlns="http://www.w3.org/2000/svg" width="44.655" height="34.506" viewBox="0 0 44.655 34.506">
  <g id="Group_8552" data-name="Group 8552">
    <path id="Path_8887" data-name="Path 8887" d="M41.6,8a4.066,4.066,0,0,0-3.917,5.095l-7.206,7.226a4.134,4.134,0,0,0-2.111,0l-5.176-5.176a4.058,4.058,0,1,0-7.835,0L6.095,24.38a4.056,4.056,0,1,0,2.882,2.882l9.236-9.256a4.134,4.134,0,0,0,2.111,0L25.5,23.183a4.058,4.058,0,1,0,7.835,0l7.226-7.206A4.056,4.056,0,1,0,41.6,8Z" transform="translate(-1 2.149)" fill="#fff"/>
    <path id="Path_8888" data-name="Path 8888" d="M18.089,15.179,20,10.977l4.181-1.888L20,7.2,18.089,3,16.222,7.2,12,9.089l4.222,1.888Z" transform="translate(10.328 -3)" fill="#fff"/>
    <path id="Path_8889" data-name="Path 8889" d="M6.074,16.149l1.015-4.06,4.06-1.015L7.089,10.06,6.074,6,5.06,10.06,1,11.074l4.06,1.015Z" transform="translate(-1 0.089)" fill="#fff"/>
  </g>
</svg>
