<svg xmlns="http://www.w3.org/2000/svg" width="34.709" height="34.709" viewBox="0 0 34.709 34.709">
  <g id="Icon_-_Success" data-name="Icon - Success" transform="translate(4.777 -7.048)">
    <g id="Group_8994" data-name="Group 8994">
      <g id="Group_488" data-name="Group 488" transform="translate(12.145 7.048) rotate(45)">
        <path id="Path_454" data-name="Path 454" d="M258.123,24.4l-2.848-3.162.446-4.233-4.164-.882-2.124-3.69-3.888,1.737L245.021,24.4l.525,10.228,3.888,1.737,2.124-3.69,4.164-.882-.446-4.233Z" transform="translate(-232.968 -12.437)" fill="#0ed678"/>
        <path id="Path_455" data-name="Path 455" d="M8.69,12.437l-2.124,3.69L2.4,17.008l.446,4.233L0,24.4l2.848,3.162L2.4,31.8l4.164.882,2.124,3.69,3.888-1.737V14.174Z" transform="translate(0 -12.437)" fill="#0ed678"/>
      </g>
      <g id="Group_489" data-name="Group 489" transform="translate(7.15 20.666)">
        <path id="Path_456" data-name="Path 456" d="M250.819,180.708l-1.1-.983-4.172,4.674-.525,1.162.525,1.055Z" transform="translate(-240.118 -179.725)" fill="#f7f0eb"/>
        <path id="Path_457" data-name="Path 457" d="M146.391,233.1l-1.043,1.043,4.387,4.387,1.041-1.166v-2.216l-1.1,1.234Z" transform="translate(-145.348 -230.47)" fill="#fffbf5"/>
      </g>
    </g>
  </g>
</svg>
