<svg xmlns="http://www.w3.org/2000/svg" width="75.347" height="75.347" viewBox="0 0 75.347 75.347"><defs><style>.a{fill:#0ed678;}.b{fill:#f7f0eb;}.c{fill:#fffbf5;}</style></defs><g transform="translate(-461.244 -182.234)"><g transform="translate(466.021 175.186)"><g transform="translate(31.957 7.048) rotate(45)"><path class="a" d="M28.442,25.975,22.26,19.112l.968-9.188L14.189,8.01,9.578,0,1.139,3.772,0,25.975l1.139,22.2L9.578,51.95l4.611-8.01,9.039-1.914-.968-9.188Z" transform="translate(26.164 0)"/><path class="a" d="M18.864,0,14.253,8.01,5.214,9.924l.968,9.188L0,25.975l6.182,6.863-.968,9.188,9.039,1.914,4.611,8.01L27.3,48.178V3.772Z"/></g><g transform="translate(21.114 36.61)"><path class="b" d="M257.606,181.858l-2.39-2.133-9.056,10.146-1.139,2.521,1.139,2.289Z" transform="translate(-234.378 -179.725)"/><path class="c" d="M147.613,233.1l-2.265,2.265,9.523,9.524,2.259-2.531v-4.811l-2.391,2.679Z" transform="translate(-145.348 -227.396)"/></g></g></g></svg>