<svg id="inventory_2-24px" xmlns="http://www.w3.org/2000/svg" width="28" height="28" viewBox="0 0 28 28">
  <g id="Group_8789" data-name="Group 8789">
    <rect id="Rectangle_2187" data-name="Rectangle 2187" width="28" height="28" fill="none"/>
  </g>
  <g id="Group_8790" data-name="Group 8790" transform="translate(2.333 2.333)">
    <path id="Path_9094" data-name="Path 9094" d="M23,2H4.333A2.419,2.419,0,0,0,2,4.333V7.845A2.357,2.357,0,0,0,3.167,9.817V23A2.507,2.507,0,0,0,5.5,25.333H21.833A2.507,2.507,0,0,0,24.167,23V9.817a2.357,2.357,0,0,0,1.167-1.972V4.333A2.419,2.419,0,0,0,23,2ZM17.167,16h-7V13.667h7ZM23,7.833H4.333v-3.5H23Z" transform="translate(-2 -2)" fill="#001f38"/>
  </g>
</svg>
