<svg xmlns="http://www.w3.org/2000/svg" xmlns:xlink="http://www.w3.org/1999/xlink" width="42" height="42" viewBox="0 0 42 42"><defs><style>.a,.b,.h{fill:none;}.a{clip-rule:evenodd;}.c{clip-path:url(#a);}.d{clip-path:url(#b);}.e{isolation:isolate;}.f{clip-path:url(#c);}.g{clip-path:url(#d);}.h{stroke:#a6a8c2;stroke-width:2px;}</style><clipPath id="a"><path class="a" d="M1062-51a21,21,0,0,1,21,21,21,21,0,0,1-21,21,21,21,0,0,1-21-21A21,21,0,0,1,1062-51Z"/></clipPath><clipPath id="b"><path class="b" d="M17,0H1159V-60H17Z"/></clipPath><clipPath id="c"><rect class="b" width="62" height="62" transform="translate(1031 -61)"/></clipPath><clipPath id="d"><path class="b" d="M1041-9h42V-51h-42Z"/></clipPath></defs><g class="c" transform="translate(-1041 51)"><g class="d"><g class="e"><g class="f"><g class="g"><g transform="translate(1041 -51)"><path class="h" d="M21,0A21,21,0,1,1,0,21,21,21,0,0,1,21,0Z"/></g></g></g></g></g></g></svg>