<svg xmlns="http://www.w3.org/2000/svg" xmlns:xlink="http://www.w3.org/1999/xlink" width="16" height="16" viewBox="0 0 16 16"><defs><style>.a{fill:none;}.b{clip-path:url(#a);}.c{clip-path:url(#b);}.d{fill:#a6a8c2;}</style><clipPath id="a"><path class="a" d="M1061.293-22.293l-7-7a.956.956,0,0,1-.08-.09l.08.09a.947.947,0,0,1-.1-.112c-.018-.024-.034-.049-.05-.075s-.015-.024-.021-.037-.022-.04-.031-.061-.016-.034-.023-.052-.015-.04-.021-.06-.01-.03-.014-.046-.011-.043-.016-.065l-.009-.052c0-.02-.005-.041-.007-.061a.5.5,0,0,1,0-.055c0-.01,0-.021,0-.032v-.033a.436.436,0,0,1,0-.052l0,.085a1.05,1.05,0,0,1,.011-.149l.009-.052c.005-.022.01-.044.016-.065s.009-.031.014-.046.013-.039.021-.059.015-.035.023-.052.02-.041.031-.061.014-.024.021-.036.032-.05.05-.074l.017-.022.007-.008.073-.082h0l7-7a1,1,0,0,1,1.414,0,1,1,0,0,1,0,1.414L1057.415-31H1069a1,1,0,0,1,1,1,1,1,0,0,1-1,1h-11.585l5.292,5.293a1,1,0,0,1,0,1.414A1,1,0,0,1,1061.293-22.293Z"/></clipPath><clipPath id="b"><path class="a" d="M17,0H1159V-60H17Z"/></clipPath></defs><g class="b" transform="translate(-1054 38)"><g class="c"><path class="d" d="M1075-17h-26V-43h26Z"/></g></g></svg>