<svg xmlns="http://www.w3.org/2000/svg" xmlns:xlink="http://www.w3.org/1999/xlink" width="41.654" height="41.654" viewBox="0 0 41.654 41.654"><defs><style>.a,.b{fill:none;}.a{clip-rule:evenodd;}.c{clip-path:url(#a);}.d{clip-path:url(#b);}.e{fill:rgba(166,166,166,0.08);}.f{clip-path:url(#c);}.g{fill:#e9e9e0;}.h{clip-path:url(#e);}.i{fill:#d9d7ca;}.j{clip-path:url(#g);}.k{fill:#cc4a4b;}.l{clip-path:url(#i);}.m{clip-path:url(#k);}.n{fill:#fff;}.o{clip-path:url(#m);}.p{clip-path:url(#o);}</style><clipPath id="a"><path class="a" d="M20.827-6.346A20.827,20.827,0,0,0,41.654-27.173,20.827,20.827,0,0,0,20.827-48,20.827,20.827,0,0,0,0-27.173,20.827,20.827,0,0,0,20.827-6.346Z" transform="translate(0 48)"/></clipPath><clipPath id="b"><path class="b" d="M-159,298.152H1090.613V-646H-159Z" transform="translate(159 646)"/></clipPath><clipPath id="c"><path class="b" d="M26.552-36H15.758c-.3,0-.544.244-.544.716v19.739a.56.56,0,0,0,.544.372h14.9a.56.56,0,0,0,.544-.372V-31.173c0-.259-.035-.342-.1-.4L26.783-35.9A.329.329,0,0,0,26.552-36Z" transform="translate(-15.214 36)"/></clipPath><clipPath id="e"><path class="b" d="M28.5-35.935v4.407h4.407Z" transform="translate(-28.5 35.935)"/></clipPath><clipPath id="g"><path class="b" d="M20.673-23.215h0a.6.6,0,0,1-.36-.121.891.891,0,0,1-.415-.834c.068-.605.816-1.239,2.226-1.885a24.965,24.965,0,0,0,1.409-4,3.673,3.673,0,0,1-.469-2.471.713.713,0,0,1,.422-.452,1.825,1.825,0,0,1,.378-.064c.187,0,.352.241.469.39s.359.436-.139,2.53a11.884,11.884,0,0,0,1.892,2.812,7.236,7.236,0,0,1,1.249-.133c.582,0,.935.136,1.079.415a.753.753,0,0,1-.145.8.988.988,0,0,1-.826.443,2.472,2.472,0,0,1-1.566-.85,17.82,17.82,0,0,0-3.283,1.05A10.552,10.552,0,0,1,21.708-24C21.327-23.464,21-23.215,20.673-23.215Zm.99-1.906c-.795.447-1.119.814-1.142,1.021,0,.034-.014.124.16.257C20.737-23.861,21.06-24.009,21.663-25.121Zm5.072-1.652c.3.233.377.351.575.351a.561.561,0,0,0,.45-.164.588.588,0,0,0,.086-.154c-.046-.024-.106-.073-.437-.073A5.439,5.439,0,0,0,26.735-26.774Zm-2.778-2.448a26.514,26.514,0,0,1-.994,2.813,18.583,18.583,0,0,1,2.416-.751A12.731,12.731,0,0,1,23.957-29.221Zm-.226-3.147a.892.892,0,0,0,.036,1.2C24.119-31.959,23.747-32.374,23.731-32.369Z" transform="translate(-19.894 33.039)"/></clipPath><clipPath id="i"><path class="b" d="M30.662-12.963h-14.9a.544.544,0,0,1-.544-.544v-5.778H31.206v5.778A.544.544,0,0,1,30.662-12.963Z" transform="translate(-15.214 19.286)"/></clipPath><clipPath id="k"><path class="b" d="M19.786-13.857h-.61V-17.6h1.078a1.513,1.513,0,0,1,.473.076,1.285,1.285,0,0,1,.42.229,1.194,1.194,0,0,1,.3.369,1.021,1.021,0,0,1,.115.486,1.329,1.329,0,0,1-.1.516,1.079,1.079,0,0,1-.27.389,1.215,1.215,0,0,1-.417.244,1.6,1.6,0,0,1-.539.086h-.453v1.353Zm0-3.285v1.485h.559a.665.665,0,0,0,.221-.038.558.558,0,0,0,.2-.125.609.609,0,0,0,.147-.241,1.143,1.143,0,0,0,.056-.384,1.038,1.038,0,0,0-.025-.211.609.609,0,0,0-.1-.229.616.616,0,0,0-.221-.183.822.822,0,0,0-.376-.074h-.457Z" transform="translate(-19.176 17.604)"/></clipPath><clipPath id="m"><path class="b" d="M25.776-15.834a2.753,2.753,0,0,1-.1.791,1.966,1.966,0,0,1-.252.549,1.293,1.293,0,0,1-.343.348,1.722,1.722,0,0,1-.369.191,1.522,1.522,0,0,1-.325.081,2.167,2.167,0,0,1-.219.017H22.75V-17.6h1.129a2.145,2.145,0,0,1,.831.15,1.726,1.726,0,0,1,.6.4,1.638,1.638,0,0,1,.353.567A1.877,1.877,0,0,1,25.776-15.834Zm-1.81,1.53a1.01,1.01,0,0,0,.895-.4,2.013,2.013,0,0,0,.274-1.149,1.946,1.946,0,0,0-.056-.463.99.99,0,0,0-.216-.414,1.14,1.14,0,0,0-.435-.3,1.872,1.872,0,0,0-.712-.115h-.356V-14.3Z" transform="translate(-22.75 17.604)"/></clipPath><clipPath id="o"><path class="b" d="M27.877-17.141v1.18h1.566v.417H27.877v1.688h-.62V-17.6H29.6v.463Z" transform="translate(-27.256 17.604)"/></clipPath></defs><g class="c" transform="translate(0 0)"><g class="d" transform="translate(-137.978 -518.936)"><path class="e" d="M-5-53H45.332V-2.668H-5Z" transform="translate(138.639 567.597)"/></g></g><g class="f" transform="translate(13.203 10.413)"><g class="d" transform="translate(-151.181 -529.35)"><path class="g" d="M10.214-41h24.67v29.5H10.214Z" transform="translate(136.628 566.011)"/></g></g><g class="h" transform="translate(24.732 10.47)"><g class="d" transform="translate(-162.71 -529.406)"><path class="i" d="M23.5-40.935H36.585v13.085H23.5Z" transform="translate(134.871 566.002)"/></g></g><g class="j" transform="translate(17.263 12.983)"><g class="d" transform="translate(-155.241 -531.919)"><path class="k" d="M14.894-38.039H32.156v18.5H14.894Z" transform="translate(136.009 565.619)"/></g></g><g class="l" transform="translate(13.203 24.918)"><g class="d" transform="translate(-151.181 -543.854)"><path class="k" d="M10.214-24.286h24.67v15H10.214Z" transform="translate(136.628 563.801)"/></g></g><g class="m" transform="translate(16.641 26.377)"><g class="d" transform="translate(-154.619 -545.314)"><path class="n" d="M14.176-22.6H25.239v12.425H14.176Z" transform="translate(136.104 563.579)"/></g></g><g class="o" transform="translate(19.742 26.377)"><g class="d" transform="translate(-157.72 -545.314)"><path class="n" d="M17.75-22.6h11.7v12.425H17.75Z" transform="translate(135.631 563.579)"/></g></g><g class="p" transform="translate(23.653 26.377)"><g class="d" transform="translate(-161.631 -545.314)"><path class="n" d="M22.256-22.6H33.278v12.425H22.256Z" transform="translate(135.035 563.579)"/></g></g></svg>