<svg xmlns="http://www.w3.org/2000/svg" xmlns:xlink="http://www.w3.org/1999/xlink" width="111.051" height="18" viewBox="0 0 111.051 18"><defs><style>.a{fill:none;}.b,.e{fill:#fff;}.b{font-size:13px;font-family:NunitoSans-Regular, Nunito Sans;letter-spacing:0.02em;}.c{clip-path:url(#a);}.d{clip-path:url(#b);}.f{clip-path:url(#c);}</style><clipPath id="a"><path class="a" d="M802.307-677.42l-2.727,2.975a.249.249,0,0,0-.044.267.248.248,0,0,0,.227.148h5.453a.248.248,0,0,0,.227-.148.249.249,0,0,0,.021-.1.246.246,0,0,0-.065-.168l-2.727-2.975a.247.247,0,0,0-.182-.08A.249.249,0,0,0,802.307-677.42Z" transform="translate(-799.516 677.5)"/></clipPath><clipPath id="b"><path class="a" d="M-1-9.22H1426.8V-1088H-1Z" transform="translate(1 1088)"/></clipPath><clipPath id="c"><path class="a" d="M799.536-672.852a.248.248,0,0,0,.044.267l2.727,2.975a.249.249,0,0,0,.183.08.249.249,0,0,0,.183-.08l2.727-2.975a.248.248,0,0,0,.065-.168.249.249,0,0,0-.021-.1.248.248,0,0,0-.227-.148h-5.453A.248.248,0,0,0,799.536-672.852Z" transform="translate(-799.516 673)"/></clipPath></defs><g transform="translate(0 -0.475)"><g transform="translate(0 0)"><text class="b" transform="translate(89 13.475)"><tspan x="-88.751" y="0">REPORT TYPE</tspan></text></g><g transform="translate(105.102 4.462)"><g class="c"><g class="d" transform="translate(-793.732 -407.021)"><path class="e" d="M794.516-669.114V-682.5H810.38v13.386Z" transform="translate(-5.742 1084.563)"/></g></g><g class="f" transform="translate(0 4.462)"><g class="d" transform="translate(-793.731 -411.483)"><path class="e" d="M794.515-664.614V-678H810.38v13.386Z" transform="translate(-5.742 1084.525)"/></g></g></g></g></svg>