<svg xmlns="http://www.w3.org/2000/svg" width="28" height="28" viewBox="0 0 28 28"><defs><style>.a{fill:none;}.b{fill:#fff;}</style></defs><rect class="a" width="28" height="28"/><g transform="translate(2.333 2.333)"><path class="b" d="M23,2H4.333A2.419,2.419,0,0,0,2,4.333V7.845A2.357,2.357,0,0,0,3.167,9.817V23A2.507,2.507,0,0,0,5.5,25.333H21.833A2.507,2.507,0,0,0,24.167,23V9.817a2.357,2.357,0,0,0,1.167-1.972V4.333A2.419,2.419,0,0,0,23,2ZM17.167,16h-7V13.667h7ZM23,7.833H4.333v-3.5H23Z" transform="translate(-2 -2)"/></g></svg>